<svg
  xmlns="http://www.w3.org/2000/svg"
  viewBox="0 0 64 64"
  role="img"
  aria-label="Tokyo Rail Disruption Map icon"
>
  <defs>
    <linearGradient id="skyLine" x1="11" x2="52" y1="17" y2="51">
      <stop stop-color="#38bdf8" />
      <stop offset="1" stop-color="#0284c7" />
    </linearGradient>
    <linearGradient id="greenLine" x1="12" x2="55" y1="51" y2="16">
      <stop stop-color="#22c55e" />
      <stop offset="1" stop-color="#86efac" />
    </linearGradient>
    <radialGradient id="alertGlow" cx="0.5" cy="0.5" r="0.5">
      <stop stop-color="#fb7185" stop-opacity="0.9" />
      <stop offset="0.56" stop-color="#ef4444" stop-opacity="0.42" />
      <stop offset="1" stop-color="#ef4444" stop-opacity="0" />
    </radialGradient>
  </defs>
  <rect width="64" height="64" rx="15" fill="#07111f" />
  <path
    d="M-1 17 H16 C24 17 29 22 29 30 V40 C29 47 34 51 42 51 H65"
    fill="none"
    stroke="url(#skyLine)"
    stroke-width="7.5"
    stroke-linecap="round"
  />
  <path
    d="M4 57 C10 49 16 52 21 45 C25 39 24 33 31 32 H40 C46 32 47 27 48 23 C49 17 53 14 61 8"
    fill="none"
    stroke="url(#greenLine)"
    stroke-width="7.5"
    stroke-linecap="round"
  />
  <circle cx="32" cy="32" r="7.25" fill="#0f172a" />
  <circle cx="32" cy="32" r="4.2" fill="#f8fafc" />
  <circle cx="49" cy="32" r="12.5" fill="url(#alertGlow)" />
  <circle cx="49" cy="32" r="6.7" fill="#ef4444" />
  <path
    d="M49 27.8 V32.4"
    fill="none"
    stroke="#fff7ed"
    stroke-width="2.6"
    stroke-linecap="round"
  />
  <circle cx="49" cy="36.4" r="1.35" fill="#fff7ed" />
</svg>
